<?xml version="1.0" encoding="utf-8"?>
<!-- Generator: Adobe Illustrator 22.0.1, SVG Export Plug-In . SVG Version: 6.00 Build 0)  -->
<svg version="1.1" xmlns="http://www.w3.org/2000/svg" xmlns:xlink="http://www.w3.org/1999/xlink" x="0px" y="0px"
	 viewBox="0 0 521 359" style="enable-background:new 0 0 521 359;" xml:space="preserve">
<style type="text/css">
	.st0{fill:none;stroke:#000000;stroke-miterlimit:10;}
	.st1{display:none;}
	.st2{display:inline;fill:none;stroke:#000000;stroke-miterlimit:10;}
	.st3{fill:none;stroke:#000000;stroke-width:0.7087;stroke-linecap:round;}
</style>
<g id="Layer_1">
	<path class="st0" d="M0.5,347.2V11.8c0-6.3,5.1-11.3,11.3-11.3h497.3c6.3,0,11.3,5.1,11.3,11.3v335.3c0,6.3-5.1,11.3-11.3,11.3
		H11.8C5.6,358.5,0.5,353.4,0.5,347.2z"/>
	<circle class="st0" cx="10.7" cy="10.7" r="3.1"/>
	<circle class="st0" cx="9" cy="179.5" r="3.1"/>
	<circle class="st0" cx="10.7" cy="348.3" r="3.1"/>
	<circle class="st0" cx="510.3" cy="10.7" r="3.1"/>
	<circle class="st0" cx="510.4" cy="348.4" r="3.1"/>
	<circle class="st0" cx="260.5" cy="350" r="3.1"/>
	<circle class="st0" cx="260.5" cy="9" r="3.1"/>
	<circle class="st0" cx="512" cy="179.5" r="3.1"/>
</g>
<g id="Layer_2" class="st1">
	<rect x="17.5" y="17.5" class="st2" width="486" height="324"/>
</g>
<g id="Switch">
	<g id="svgGroup">
		<path vector-effect="non-scaling-stroke" class="st3" d="M24.7,64.4h39.7V24.7H24.7V64.4z M78.7,64.4h39.7V24.7H78.7V64.4z
			 M132.7,64.4h39.7V24.7h-39.7V64.4z M186.7,64.4h39.7V24.7h-39.7V64.4z M240.7,64.4h39.7V24.7h-39.7V64.4z M294.7,64.4h39.7V24.7
			h-39.7V64.4z M348.7,64.4h39.7V24.7h-39.7V64.4z M402.7,64.4h39.7V24.7h-39.7V64.4z M456.7,64.4h39.7V24.7h-39.7V64.4z
			 M24.7,118.4h39.7V78.7H24.7V118.4z M78.7,118.4h39.7V78.7H78.7V118.4z M132.7,118.4h39.7V78.7h-39.7V118.4z M186.7,118.4h39.7
			V78.7h-39.7V118.4z M240.7,118.4h39.7V78.7h-39.7V118.4z M294.7,118.4h39.7V78.7h-39.7V118.4z M348.7,118.4h39.7V78.7h-39.7V118.4
			z M402.7,118.4h39.7V78.7h-39.7V118.4z M456.7,118.4h39.7V78.7h-39.7V118.4z M24.7,172.4h39.7v-39.7H24.7V172.4z M78.7,172.4h39.7
			v-39.7H78.7V172.4z M132.7,172.4h39.7v-39.7h-39.7V172.4z M186.7,172.4h39.7v-39.7h-39.7V172.4z M240.7,172.4h39.7v-39.7h-39.7
			V172.4z M294.7,172.4h39.7v-39.7h-39.7V172.4z M348.7,172.4h39.7v-39.7h-39.7V172.4z M402.7,172.4h39.7v-39.7h-39.7V172.4z
			 M456.7,172.4h39.7v-39.7h-39.7V172.4z M24.7,226.4h39.7v-39.7H24.7V226.4z M78.7,226.4h39.7v-39.7H78.7V226.4z M132.7,226.4h39.7
			v-39.7h-39.7V226.4z M186.7,226.4h39.7v-39.7h-39.7V226.4z M240.7,226.4h39.7v-39.7h-39.7V226.4z M294.7,226.4h39.7v-39.7h-39.7
			V226.4z M348.7,226.4h39.7v-39.7h-39.7V226.4z M402.7,226.4h39.7v-39.7h-39.7V226.4z M456.7,226.4h39.7v-39.7h-39.7V226.4z
			 M24.7,280.4h39.7v-39.7H24.7V280.4z M78.7,280.4h39.7v-39.7H78.7V280.4z M132.7,280.4h39.7v-39.7h-39.7V280.4z M186.7,280.4h39.7
			v-39.7h-39.7V280.4z M240.7,280.4h39.7v-39.7h-39.7V280.4z M294.7,280.4h39.7v-39.7h-39.7V280.4z M348.7,280.4h39.7v-39.7h-39.7
			V280.4z M402.7,280.4h39.7v-39.7h-39.7V280.4z M456.7,280.4h39.7v-39.7h-39.7V280.4z M24.7,334.4h39.7v-39.7H24.7V334.4z
			 M78.7,334.4h39.7v-39.7H78.7V334.4z M132.7,334.4h39.7v-39.7h-39.7V334.4z M186.7,334.4h39.7v-39.7h-39.7V334.4z M240.7,334.4
			h39.7v-39.7h-39.7V334.4z M294.7,334.4h39.7v-39.7h-39.7V334.4z M348.7,334.4h39.7v-39.7h-39.7V334.4z M402.7,334.4h39.7v-39.7
			h-39.7V334.4z M456.7,334.4h39.7v-39.7h-39.7V334.4z"/>
	</g>
</g>
</svg>
